<svg xmlns="http://www.w3.org/2000/svg" xmlns:xlink="http://www.w3.org/1999/xlink" viewBox="0 0 117.29 39.99"><defs><style>.cls-1{isolation:isolate;}.cls-2{fill:url(#Degradado_sin_nombre_31);}.cls-3{mix-blend-mode:darken;fill:url(#Degradado_sin_nombre_27);}.cls-4{fill:#0d71b9;}.cls-5{fill:url(#Degradado_sin_nombre_5);}.cls-6{fill:#fff;}.cls-7{fill:url(#Degradado_sin_nombre_34);}.cls-8{fill:url(#Degradado_sin_nombre_35);}.cls-9{fill:url(#Degradado_sin_nombre_36);}</style><linearGradient id="Degradado_sin_nombre_31" x1="8.68" y1="20.45" x2="35.89" y2="20.45" gradientUnits="userSpaceOnUse"><stop offset="0" stop-color="#143453"/><stop offset="0.01" stop-color="#153a5b" stop-opacity="0.99"/><stop offset="0.08" stop-color="#1e638c" stop-opacity="0.92"/><stop offset="0.15" stop-color="#2583b2" stop-opacity="0.87"/><stop offset="0.22" stop-color="#2999cd" stop-opacity="0.83"/><stop offset="0.3" stop-color="#2ca7de" stop-opacity="0.81"/><stop offset="0.38" stop-color="#2dabe3" stop-opacity="0.8"/><stop offset="0.47" stop-color="#64c0e7" stop-opacity="0.87"/><stop offset="0.58" stop-color="#a5daec" stop-opacity="0.96"/><stop offset="0.65" stop-color="#a8dbec" stop-opacity="0.96"/><stop offset="0.72" stop-color="#b3dfee" stop-opacity="0.97"/><stop offset="0.78" stop-color="#c4e6f0" stop-opacity="0.99"/><stop offset="0.84" stop-color="#d8edf2"/></linearGradient><radialGradient id="Degradado_sin_nombre_27" cx="8.94" cy="-21.21" r="5.76" gradientTransform="translate(2.71 65.03) scale(1.68 1.7)" gradientUnits="userSpaceOnUse"><stop offset="0.1" stop-color="#fff"/><stop offset="0.17" stop-color="#fafdfe"/><stop offset="0.26" stop-color="#ebf7fc"/><stop offset="0.35" stop-color="#d3edf9"/><stop offset="0.45" stop-color="#b0dff4"/><stop offset="0.56" stop-color="#84ceef"/><stop offset="0.67" stop-color="#4fb9e8"/><stop offset="0.73" stop-color="#2dabe3"/><stop offset="0.87" stop-color="#1d8fce" stop-opacity="0.9"/><stop offset="1" stop-color="#0d71b9" stop-opacity="0.8"/></radialGradient><linearGradient id="Degradado_sin_nombre_5" x1="17.92" y1="24.59" x2="36.4" y2="24.58" gradientUnits="userSpaceOnUse"><stop offset="0" stop-color="#2dabe3"/><stop offset="0" stop-color="#2face3"/><stop offset="0.02" stop-color="#4ab7e5"/><stop offset="0.03" stop-color="#60c0e6"/><stop offset="0.05" stop-color="#71c7e8"/><stop offset="0.08" stop-color="#7ccbe8"/><stop offset="0.11" stop-color="#83cee9"/><stop offset="0.21" stop-color="#85cfe9"/><stop offset="0.26" stop-color="#9ad7ed"/><stop offset="0.38" stop-color="#c5e8f5"/><stop offset="0.49" stop-color="#e5f5fa"/><stop offset="0.58" stop-color="#f8fcfe"/><stop offset="0.64" stop-color="#fff"/></linearGradient><linearGradient id="Degradado_sin_nombre_34" x1="27.25" y1="23.03" x2="41.23" y2="23.03" gradientUnits="userSpaceOnUse"><stop offset="0" stop-color="#035c98"/><stop offset="0.11" stop-color="#06629e"/><stop offset="0.27" stop-color="#0d73ae"/><stop offset="0.44" stop-color="#198eca"/><stop offset="0.51" stop-color="#1f9cd7"/><stop offset="1" stop-color="#cce0f4"/></linearGradient><linearGradient id="Degradado_sin_nombre_35" x1="27.58" y1="25.38" x2="38" y2="25.38" gradientTransform="translate(0.46 0.36) rotate(1.93)" gradientUnits="userSpaceOnUse"><stop offset="0" stop-color="#288034"/><stop offset="0.14" stop-color="#2d8634"/><stop offset="0.33" stop-color="#3c9733"/><stop offset="0.51" stop-color="#50ae32"/><stop offset="1" stop-color="#deeccf"/></linearGradient><linearGradient id="Degradado_sin_nombre_36" x1="26.57" y1="30.8" x2="40.55" y2="30.8" gradientUnits="userSpaceOnUse"><stop offset="0" stop-color="#c0e4fa"/><stop offset="0.11" stop-color="#bae1f9"/><stop offset="0.26" stop-color="#a9daf5"/><stop offset="0.43" stop-color="#8dcdef"/><stop offset="0.61" stop-color="#67bce7"/><stop offset="0.8" stop-color="#36a6dc"/><stop offset="0.88" stop-color="#1f9cd7"/><stop offset="1" stop-color="#cce0f4"/></linearGradient></defs><g class="cls-1"><g id="Capa_1" data-name="Capa 1"><path class="cls-2" d="M21.28,4.42A30.53,30.53,0,0,1,19.6,9.18c-1.3,2.62-1.83,3.7-2.72,5.24-.15.28-.33.55-.64,1.11L14.14,19c-1.06,1.78-1.82,3.14-2.1,3.64-.63,1.13-1,1.81-1.68,3.17A18,18,0,0,0,9.23,28.3a7.27,7.27,0,0,0-.55,2.3,6.34,6.34,0,0,0,.57,2.68,8.54,8.54,0,0,0,.76,1.4,11.15,11.15,0,0,0,2,2.26,13.4,13.4,0,0,0,3.6,2.19,16.66,16.66,0,0,0,3.12,1,17.39,17.39,0,0,0,6.72,0,14.93,14.93,0,0,0,3.75-1.23,14.41,14.41,0,0,0,3-2A11.36,11.36,0,0,0,34.08,35a9.11,9.11,0,0,0,1.48-2.85,8.71,8.71,0,0,0,0-4.75,13.38,13.38,0,0,0-1.29-3,29.73,29.73,0,0,0-2.07-3.34c-2.45-3.53-2.52-3.43-3.36-4.76A43.21,43.21,0,0,1,25.48,10,50.14,50.14,0,0,1,23.8,5.22c-1-3.17-1.32-4.79-1.68-4.76S21.9,1.87,21.28,4.42Z" transform="translate(-8.68 -0.46)"/><ellipse class="cls-3" cx="17.64" cy="29.56" rx="10.08" ry="9.32"/><path class="cls-4" d="M28,14.48c1.24,1.78,2.06,3.79,3.23,5.61.06.1.24.39.13.61-.29.55-2.23.35-3.36,0a7.57,7.57,0,0,1-5-6.22c-.08-.94.1-1.49,1.68-6.21C26.82,12.33,27.91,14.36,28,14.48Z" transform="translate(-8.68 -0.46)"/><path class="cls-5" d="M36.4,28.47A7,7,0,0,1,35,32.27a9,9,0,0,1-3,2.56,10,10,0,0,1-4.79,1.41,9.72,9.72,0,0,1-4.78-1.12,8.7,8.7,0,0,1-3.11-2.71,6.94,6.94,0,0,1-1.35-3.94,7.31,7.31,0,0,1,1-3.41c1.43-2.91,2.54-3.59,4.05-5.92,2.43-3.75,2.22-6.16,3.36-6.21.93,0,1.17,1.59,3.36,4.66s3.18,3.16,5,6.22C36.38,26.55,36.42,27.86,36.4,28.47Z" transform="translate(-8.68 -0.46)"/><path class="cls-6" d="M47.5,9.28c-.36-1.39-1-2.76-2.92-2.76a2.1,2.1,0,0,0-2.22,2.3c0,1.45.93,2.19,2.68,3.09,2.53,1.31,3.62,2.28,3.62,4.28,0,2.21-1.92,3.89-4.63,3.89a8.87,8.87,0,0,1-3.22-.69,29.32,29.32,0,0,1-.57-3.16l.65-.17c.42,1.41,1.35,3.24,3.54,3.24a2.31,2.31,0,0,0,2.44-2.42c0-1.62-.86-2.27-2.72-3.28-2.21-1.2-3.45-2.22-3.45-4.17S42.26,5.78,45,5.78a13.76,13.76,0,0,1,2.78.4c.08.76.17,1.6.34,3Z" transform="translate(-8.68 -0.46)"/><path class="cls-6" d="M50.47,19.77v-.59c1.73-.19,1.9-.28,1.9-2.07V8.75c0-1.81-.17-1.89-1.9-2.08V6.08h5.65v.59c-1.75.19-1.92.27-1.92,2.08v8.36c0,1.81.17,1.88,1.92,2.07v.59Z" transform="translate(-8.68 -0.46)"/><path class="cls-6" d="M65.17,9.28c-.36-1.39-.94-2.76-2.92-2.76A2.1,2.1,0,0,0,60,8.82c0,1.45.92,2.19,2.67,3.09,2.53,1.31,3.62,2.28,3.62,4.28,0,2.21-1.91,3.89-4.63,3.89a8.92,8.92,0,0,1-3.22-.69,29.32,29.32,0,0,1-.57-3.16l.65-.17c.42,1.41,1.35,3.24,3.54,3.24a2.31,2.31,0,0,0,2.44-2.42c0-1.62-.86-2.27-2.72-3.28-2.21-1.2-3.45-2.22-3.45-4.17s1.56-3.65,4.34-3.65a13.76,13.76,0,0,1,2.78.4c.08.76.17,1.6.34,3Z" transform="translate(-8.68 -0.46)"/><path class="cls-6" d="M79.2,9.38a8.13,8.13,0,0,0-.67-1.74c-.34-.57-.55-.72-1.71-.72H74.71V17.18c0,1.64.17,1.87,2.17,2v.59H70.75v-.59c2-.13,2.13-.34,2.13-2V6.92H71c-1.16,0-1.5.13-1.86.76a9.44,9.44,0,0,0-.69,1.7h-.63c.12-1.28.25-2.61.31-3.79h.49c.31.51.54.49,1.13.49h8.34a1.07,1.07,0,0,0,1.08-.49h.5c0,1,.09,2.51.19,3.73Z" transform="translate(-8.68 -0.46)"/><path class="cls-6" d="M92.49,16.42c-.13.54-.7,2.71-.91,3.35H81.35v-.59c2-.15,2.11-.34,2.11-2.07V8.79c0-1.87-.24-2-1.82-2.12V6.08h6.45c2,0,2.8,0,3,0,0,.52.11,2.1.19,3.22l-.63.1a7.19,7.19,0,0,0-.63-1.6c-.34-.69-.82-.84-2.09-.84H86c-.65,0-.69.06-.69.67v4.66h2.33c1.58,0,1.69-.32,1.94-1.75h.65v4.34h-.65c-.27-1.52-.44-1.73-2-1.73H85.29V17.3c0,1.48.46,1.6,1.51,1.62h2c1.29,0,1.5-.19,2-.73a9.53,9.53,0,0,0,1.14-1.94Z" transform="translate(-8.68 -0.46)"/><path class="cls-6" d="M105.69,19.77v-.59c1.73-.17,1.79-.3,1.77-2.55l0-8.59c-1.72,3.85-4.5,9.87-5.24,11.73h-.55C101,17.85,98.6,12.06,97,8.25c-.36,7.37-.38,9-.38,9.43,0,1.18.55,1.35,2,1.5v.59h-5v-.59c1.22-.13,1.72-.38,1.89-1.52.13-.93.15-1.69.7-9.37.08-1.1-.13-1.45-2-1.62V6.08h3.66l4.66,10.67,5-10.67h3.68v.59c-1.81.21-2,.4-2,1.87l.08,8.09c.09,2.25.15,2.36,2,2.55v.59Z" transform="translate(-8.68 -0.46)"/><path class="cls-6" d="M120.77,19.77v-.59c1.37-.17,1.54-.38,1.25-1.18s-.7-1.88-1.14-3.2h-4.55c-.34.94-.65,1.76-1,2.63-.46,1.37-.17,1.53,1.56,1.75v.59h-4.86v-.59c1.32-.17,1.66-.32,2.4-2.22l4.36-11,.67-.13c1.33,3.6,2.78,7.58,4.11,11.23.67,1.83.86,2,2.36,2.17v.59Zm-2.1-11.23c-.67,1.81-1.39,3.73-2,5.39h3.93Z" transform="translate(-8.68 -0.46)"/><path class="cls-7" d="M26.32,23.81a1.31,1.31,0,0,1,.09-.17A3.4,3.4,0,0,1,28,22.25a6,6,0,0,1,3.36,0,18.1,18.1,0,0,0,3.32.38,11.48,11.48,0,0,0,3.4-.38,10.61,10.61,0,0,0,3.35-1.55v0a3.94,3.94,0,0,1,0,1.52,2.44,2.44,0,0,1-1.68,1.56,6.51,6.51,0,0,1-1.67,0H31.23c-.74,0-1,0-1.55,0a5.29,5.29,0,0,0-1.59.23,3.39,3.39,0,0,0-1,.54c-.53.43-.6.81-.75.78S26,24.49,26.32,23.81Z" transform="translate(-8.68 -0.46)"/><path class="cls-8" d="M26.46,27.2l.07-.12a2.56,2.56,0,0,1,1.22-.94,4.66,4.66,0,0,1,2.5.08,11.67,11.67,0,0,0,5,.16,15.43,15.43,0,0,0,2.54-1,2.73,2.73,0,0,1,0,1.09,2.1,2.1,0,0,1-1.29,1.06,4.84,4.84,0,0,1-1.84,0l-1.91-.13c-1.44-.07-1.35,0-2.51-.08-.19,0-.64,0-1.25,0a3.65,3.65,0,0,0-1.18.13,2.38,2.38,0,0,0-.78.35c-.4.29-.46.56-.58.53S26.19,27.67,26.46,27.2Z" transform="translate(-8.68 -0.46)"/><path class="cls-9" d="M25.64,31.58l.1-.17A3.37,3.37,0,0,1,27.32,30a6,6,0,0,1,3.36,0A18.16,18.16,0,0,0,34,30.4,11.42,11.42,0,0,0,37.4,30a10.74,10.74,0,0,0,3.36-1.55v0a4.1,4.1,0,0,1,0,1.52,2.46,2.46,0,0,1-1.68,1.56,6.63,6.63,0,0,1-1.68,0H30.56c-.74,0-1,0-1.56,0a5.17,5.17,0,0,0-1.58.23,3.42,3.42,0,0,0-1,.54c-.52.43-.59.81-.75.78S25.3,32.26,25.64,31.58Z" transform="translate(-8.68 -0.46)"/><path class="cls-6" d="M58,33.11c-.14.75-.87,3.26-1.11,4H45.71v-.68c2.19-.22,2.39-.34,2.39-2.39V24.47c0-2-.25-2.17-2.18-2.37v-.67h6.47v.67c-1.93.2-2.19.29-2.19,2.37v9.82c0,1.48.19,1.81,1.56,1.84l1.91,0c1.23,0,1.59-.14,2.15-.75a8.11,8.11,0,0,0,1.47-2.48Z" transform="translate(-8.68 -0.46)"/><path class="cls-6" d="M69.26,37.12v-.68c1.57-.19,1.76-.43,1.43-1.35s-.8-2.15-1.31-3.67H64.17c-.39,1.09-.75,2-1.09,3-.53,1.57-.19,1.76,1.79,2v.68H59.29v-.68c1.52-.19,1.91-.36,2.75-2.53l5-12.68.77-.14C69.33,25.22,71,29.78,72.52,34c.77,2.09,1,2.29,2.7,2.48v.68ZM66.85,24.25l-2.32,6.18H69Z" transform="translate(-8.68 -0.46)"/><path class="cls-6" d="M82.41,21.43a6.84,6.84,0,0,1,4.08,1,4.11,4.11,0,0,1,1.6,3.43c0,3.53-3,4.95-5.31,4.95a3.69,3.69,0,0,1-.66-.05l-1.66-.43v3.76c0,2,.17,2.08,2.39,2.32v.68H76.18v-.68c2.08-.22,2.18-.36,2.18-2.36V24.49c0-2.15-.27-2.19-2.18-2.39v-.67Zm-2,8.08a4.26,4.26,0,0,0,1.76.32c1.62,0,3.62-.82,3.62-3.87a3.43,3.43,0,0,0-3.76-3.71,2.19,2.19,0,0,0-1.36.29c-.19.17-.26.46-.26,1.11Z" transform="translate(-8.68 -0.46)"/><path class="cls-6" d="M97.16,37.12v-.68c1.57-.19,1.76-.43,1.42-1.35s-.79-2.15-1.3-3.67H92.07c-.39,1.09-.75,2-1.09,3-.53,1.57-.19,1.76,1.79,2v.68H87.19v-.68c1.52-.19,1.91-.36,2.75-2.53l5-12.68.77-.14c1.52,4.13,3.19,8.69,4.71,12.87.77,2.09,1,2.29,2.7,2.48v.68ZM94.75,24.25l-2.32,6.18h4.51Z" transform="translate(-8.68 -0.46)"/><path class="cls-6" d="M112.84,25.1c-.41-1.6-1.08-3.17-3.35-3.17A2.41,2.41,0,0,0,107,24.56c0,1.67,1.07,2.52,3.07,3.55,2.9,1.5,4.15,2.61,4.15,4.9,0,2.54-2.19,4.47-5.31,4.47a10,10,0,0,1-3.69-.8,31.13,31.13,0,0,1-.65-3.62l.74-.19c.49,1.62,1.55,3.72,4.06,3.72a2.66,2.66,0,0,0,2.8-2.78c0-1.86-1-2.61-3.11-3.77-2.54-1.37-4-2.53-4-4.78s1.78-4.17,5-4.17a15.29,15.29,0,0,1,3.19.46c.09.87.19,1.83.38,3.4Z" transform="translate(-8.68 -0.46)"/></g></g></svg>