<svg xmlns="http://www.w3.org/2000/svg" xmlns:xlink="http://www.w3.org/1999/xlink" viewBox="0 0 270.17 95"><defs><style>.cls-1{isolation:isolate;}.cls-2{fill:url(#Degradado_sin_nombre_31);}.cls-3{mix-blend-mode:darken;fill:url(#Degradado_sin_nombre_27);}.cls-4{fill:#0071bc;}.cls-5{fill:url(#Degradado_sin_nombre_5);}.cls-6{fill:url(#Degradado_sin_nombre_34);}.cls-7{fill:url(#Degradado_sin_nombre_35);}.cls-8{fill:url(#Degradado_sin_nombre_36);}</style><linearGradient id="Degradado_sin_nombre_31" x1="16.5" y1="49.5" x2="93.16" y2="49.5" gradientUnits="userSpaceOnUse"><stop offset="0" stop-color="#003255"/><stop offset="0" stop-color="#013559" stop-opacity="0.99"/><stop offset="0.07" stop-color="#0f608a" stop-opacity="0.92"/><stop offset="0.15" stop-color="#1b81b1" stop-opacity="0.87"/><stop offset="0.22" stop-color="#2398cc" stop-opacity="0.83"/><stop offset="0.3" stop-color="#27a6dd" stop-opacity="0.81"/><stop offset="0.38" stop-color="#29abe2" stop-opacity="0.8"/><stop offset="0.47" stop-color="#5dc5ea" stop-opacity="0.87"/><stop offset="0.58" stop-color="#9fe5f5" stop-opacity="0.96"/><stop offset="0.65" stop-color="#a2e7f6" stop-opacity="0.96"/><stop offset="0.72" stop-color="#adecf7" stop-opacity="0.97"/><stop offset="0.78" stop-color="#bef4fa" stop-opacity="0.98"/><stop offset="0.84" stop-color="#d4fffd"/></linearGradient><radialGradient id="Degradado_sin_nombre_27" cx="61.27" cy="0.72" r="5.76" gradientTransform="translate(-239.98 66.2) scale(4.73 4.03)" gradientUnits="userSpaceOnUse"><stop offset="0.1" stop-color="#fff"/><stop offset="0.17" stop-color="#fafdfe"/><stop offset="0.26" stop-color="#ebf7fc"/><stop offset="0.35" stop-color="#d3eef9"/><stop offset="0.45" stop-color="#b0e0f4"/><stop offset="0.55" stop-color="#84cfee"/><stop offset="0.66" stop-color="#4fbae7"/><stop offset="0.73" stop-color="#29abe2"/><stop offset="0.87" stop-color="#158fcf" stop-opacity="0.9"/><stop offset="1" stop-color="#0071bc" stop-opacity="0.8"/></radialGradient><linearGradient id="Degradado_sin_nombre_5" x1="42.53" y1="59.33" x2="94.59" y2="59.3" gradientUnits="userSpaceOnUse"><stop offset="0" stop-color="#29abe2"/><stop offset="0" stop-color="#2fb1e5"/><stop offset="0.02" stop-color="#45c5ee"/><stop offset="0.04" stop-color="#56d5f6"/><stop offset="0.07" stop-color="#61e0fb"/><stop offset="0.11" stop-color="#68e6fe"/><stop offset="0.21" stop-color="#6ae8ff"/><stop offset="0.31" stop-color="#9aefff"/><stop offset="0.41" stop-color="#c5f6ff"/><stop offset="0.51" stop-color="#e5fbff"/><stop offset="0.58" stop-color="#f8feff"/><stop offset="0.64" stop-color="#fff"/></linearGradient><linearGradient id="Degradado_sin_nombre_34" x1="68.8" y1="55.63" x2="108.19" y2="55.63" gradientUnits="userSpaceOnUse"><stop offset="0" stop-color="#005b97"/><stop offset="0.11" stop-color="#03619d"/><stop offset="0.26" stop-color="#0b72ad"/><stop offset="0.43" stop-color="#178dc9"/><stop offset="0.51" stop-color="#1e9cd7"/><stop offset="1" stop-color="#cce0f4"/></linearGradient><linearGradient id="Degradado_sin_nombre_35" x1="69.3" y1="64.7" x2="98.7" y2="64.7" gradientTransform="translate(1.5 -2.82) rotate(1.93)" gradientUnits="userSpaceOnUse"><stop offset="0" stop-color="#257f00"/><stop offset="0.1" stop-color="#228503"/><stop offset="0.22" stop-color="#1b960a"/><stop offset="0.37" stop-color="#0fb116"/><stop offset="0.51" stop-color="#00d425"/><stop offset="1" stop-color="#deffd4"/></linearGradient><linearGradient id="Degradado_sin_nombre_36" x1="66.9" y1="74.08" x2="106.29" y2="74.08" gradientUnits="userSpaceOnUse"><stop offset="0" stop-color="#bfe5ff"/><stop offset="0.11" stop-color="#b9e2fe"/><stop offset="0.26" stop-color="#a8dbf9"/><stop offset="0.43" stop-color="#8ccef2"/><stop offset="0.61" stop-color="#66bde9"/><stop offset="0.8" stop-color="#35a6dd"/><stop offset="0.88" stop-color="#1e9cd7"/><stop offset="1" stop-color="#cce0f4"/></linearGradient></defs><g class="cls-1"><g id="Capa_1" data-name="Capa 1"><path class="cls-2" d="M52,11.42a64.68,64.68,0,0,1-4.73,11.31c-3.66,6.21-5.17,8.79-7.65,12.45-.45.66-.94,1.3-1.81,2.62,0,0-1,1.41-5.91,8.31-3,4.24-5.15,7.48-5.92,8.65-1.77,2.69-2.73,4.31-4.73,7.54a37.66,37.66,0,0,0-3.18,5.84A14.68,14.68,0,0,0,16.5,73.6,13.23,13.23,0,0,0,18.11,80a18.74,18.74,0,0,0,2.13,3.31A28.15,28.15,0,0,0,26,88.68a40,40,0,0,0,10.14,5.19,51.12,51.12,0,0,0,8.79,2.34,56.83,56.83,0,0,0,18.92,0,47.21,47.21,0,0,0,10.59-2.9,43.68,43.68,0,0,0,8.34-4.63,29.87,29.87,0,0,0,5.3-4.55,20.46,20.46,0,0,0,4.17-6.76,17.61,17.61,0,0,0,0-11.3c-.76-2.48-1.78-4.14-3.64-7.15A67.63,67.63,0,0,0,82.75,51c-6.88-8.4-7.09-8.15-9.46-11.3a98,98,0,0,1-9.47-15.08,115,115,0,0,1-4.73-11.3C56.31,5.77,55.39,1.93,54.36,2S53.74,5.36,52,11.42Z" transform="translate(-16.5 -2)"/></g><g id="redondo"><ellipse class="cls-3" cx="49.69" cy="70.24" rx="28.39" ry="22.15"/></g><g id="parte_superior"><path class="cls-4" d="M70.92,35.32c3.51,4.22,5.82,9,9.1,13.32.17.24.69.92.37,1.45-.81,1.31-6.28.82-9.47,0C63.79,48.24,57.41,42,56.73,35.32c-.24-2.25.29-3.55,4.73-14.77C67.61,30.21,70.69,35,70.92,35.32Z" transform="translate(-16.5 -2)"/></g><g id="gota_pequeña"><path class="cls-5" d="M94.58,68.54c-.22,4.5-3,7.84-4.06,9a24.88,24.88,0,0,1-8.47,6.08A32,32,0,0,1,68.56,87,31.57,31.57,0,0,1,55.1,84.35a23.75,23.75,0,0,1-8.77-6.44,15,15,0,0,1-3.8-9.37c0-2.31.67-4.49,2.78-8.1,4-6.91,7.18-8.52,11.42-14,6.85-8.92,6.26-14.65,9.46-14.76,2.64-.1,3.3,3.77,9.46,11.07s9,7.5,14.2,14.77C94.54,64,94.66,67.09,94.58,68.54Z" transform="translate(-16.5 -2)"/><path class="cls-4" d="M107.82,17.31C107,14.14,105.66,11,101.15,11c-3.75,0-5.05,2.73-5.05,5.23,0,3.31,2.12,5,6.1,7.06,5.76,3,8.26,5.18,8.26,9.74,0,5-4.37,8.88-10.56,8.88a20,20,0,0,1-7.35-1.58,65.6,65.6,0,0,1-1.29-7.2l1.48-.39c1,3.22,3.08,7.4,8.07,7.4a5.28,5.28,0,0,0,5.57-5.52c0-3.7-2-5.19-6.19-7.49-5-2.74-7.88-5-7.88-9.51,0-4.27,3.55-8.3,9.89-8.3a31,31,0,0,1,6.34.91c.19,1.73.38,3.65.77,6.77Z" transform="translate(-16.5 -2)"/><path class="cls-4" d="M114.58,41.21V39.87c3.94-.43,4.32-.63,4.32-4.71v-19c0-4.13-.38-4.32-4.32-4.76V10h12.87v1.34c-4,.44-4.37.63-4.37,4.76v19c0,4.13.38,4.28,4.37,4.71v1.34Z" transform="translate(-16.5 -2)"/><path class="cls-4" d="M148.09,17.31c-.82-3.17-2.16-6.29-6.67-6.29-3.75,0-5,2.73-5,5.23,0,3.31,2.11,5,6.09,7.06,5.76,3,8.26,5.18,8.26,9.74,0,5-4.37,8.88-10.56,8.88a20,20,0,0,1-7.35-1.58,65.6,65.6,0,0,1-1.29-7.2l1.49-.39c1,3.22,3.07,7.4,8.06,7.4a5.28,5.28,0,0,0,5.57-5.52c0-3.7-2-5.19-6.19-7.49-5-2.74-7.88-5-7.88-9.51,0-4.27,3.56-8.3,9.89-8.3a31,31,0,0,1,6.34.91c.19,1.73.38,3.65.77,6.77Z" transform="translate(-16.5 -2)"/><path class="cls-4" d="M180.06,17.55a18.1,18.1,0,0,0-1.54-4c-.77-1.29-1.25-1.63-3.89-1.63h-4.8V35.31c0,3.74.39,4.27,4.95,4.56v1.34h-14V39.87c4.46-.29,4.85-.77,4.85-4.56V11.93h-4.37c-2.64,0-3.41.29-4.23,1.73a22,22,0,0,0-1.58,3.89H154c.29-2.93.58-6,.72-8.64h1.1c.72,1.15,1.25,1.1,2.6,1.1h19a2.4,2.4,0,0,0,2.44-1.1h1.16c0,2.25.19,5.71.43,8.49Z" transform="translate(-16.5 -2)"/><path class="cls-4" d="M210.34,33.58c-.28,1.25-1.58,6.19-2.06,7.63H185V39.87c4.47-.34,4.8-.77,4.8-4.71v-19c0-4.27-.53-4.51-4.13-4.85V10h14.69c4.51,0,6.39,0,7-.1,0,1.2.24,4.8.44,7.35l-1.45.24a15.9,15.9,0,0,0-1.44-3.65c-.76-1.58-1.87-1.92-4.75-1.92h-4.56c-1.49,0-1.58.14-1.58,1.54V24.08h5.33c3.6,0,3.84-.72,4.41-4h1.49V30h-1.49c-.62-3.46-1-3.94-4.46-3.94h-5.28V35.6c0,3.36,1,3.64,3.45,3.69h4.47c2.93,0,3.41-.43,4.46-1.68a20.58,20.58,0,0,0,2.59-4.41Z" transform="translate(-16.5 -2)"/><path class="cls-4" d="M240.44,41.21V39.87c3.94-.39,4.08-.67,4-5.81l.05-19.59c-3.94,8.79-10.27,22.52-12,26.74h-1.25c-1.63-4.37-7.06-17.57-10.7-26.26-.82,16.81-.87,20.6-.87,21.51.05,2.69,1.25,3.07,4.51,3.41v1.34H212.89V39.87c2.78-.29,3.93-.87,4.32-3.46.28-2.11.33-3.84,1.58-21.36.19-2.5-.29-3.31-4.51-3.7V10h8.35l10.61,24.34L244.62,10H253v1.34c-4.13.48-4.66.92-4.56,4.28l.19,18.43c.19,5.14.34,5.38,4.56,5.81v1.34Z" transform="translate(-16.5 -2)"/><path class="cls-4" d="M274.81,41.21V39.87c3.12-.39,3.5-.87,2.83-2.69s-1.58-4.27-2.59-7.3H264.68c-.77,2.16-1.49,4-2.16,6-1.06,3.12-.39,3.51,3.55,4v1.34H255V39.87c3-.39,3.79-.72,5.47-5l9.94-25.2,1.54-.29c3,8.21,6.33,17.28,9.36,25.58,1.53,4.18,2,4.56,5.37,4.95v1.34ZM270,15.63c-1.54,4.12-3.17,8.49-4.61,12.29h9Z" transform="translate(-16.5 -2)"/></g><g id="Letra_E" data-name="Letra E"><path class="cls-6" d="M66.19,57.47c.09-.16.19-.29.26-.4a9.13,9.13,0,0,1,4.47-3.29c3.07-1.06,5.73-.47,9.47,0,7.09.89,7,.87,9.36.9a38.92,38.92,0,0,0,9.56-.9,33.86,33.86,0,0,0,9.47-3.69v.07a8.1,8.1,0,0,1,0,3.62c-.56,1.7-2.6,3.19-4.73,3.69-1,.23-1.24.07-4.74,0H85.12c-1.7,0-3.39,0-5.09,0-2.08,0-2.88-.06-4.38,0a17.83,17.83,0,0,0-4.46.56,9.61,9.61,0,0,0-2.88,1.29c-1.49,1-1.68,1.92-2.12,1.84C65.56,61.05,65.23,59.09,66.19,57.47Z" transform="translate(-16.5 -2)"/><path class="cls-7" d="M66.59,65.52l.21-.27A6.89,6.89,0,0,1,70.23,63c2.32-.69,4.28-.22,7,.18,4.91.72,9.54,1.39,14.1.37a46.17,46.17,0,0,0,7.16-2.41,5.54,5.54,0,0,1-.11,2.6c-.67,1.68-3.37,2.44-3.64,2.51-1,.27-1.66.21-5.17,0-2.66-.15-4.05-.23-5.4-.29-4-.18-3.79,0-7-.19-.55,0-1.83-.11-3.53-.09A13.59,13.59,0,0,0,70.3,66a7.58,7.58,0,0,0-2.19.85c-1.14.68-1.31,1.32-1.63,1.25C66,68,65.83,66.65,66.59,65.52Z" transform="translate(-16.5 -2)"/><path class="cls-8" d="M64.29,75.93a4,4,0,0,1,.26-.4A9,9,0,0,1,69,72.24c3.07-1.06,5.72-.47,9.46,0,7.09.89,7,.87,9.37.9a39.5,39.5,0,0,0,9.56-.9,33.91,33.91,0,0,0,9.46-3.7l0,.08a8.15,8.15,0,0,1,0,3.62c-.56,1.69-2.59,3.19-4.73,3.69-1,.22-1.23.07-4.73,0H83.21c-1.69,0-3.38,0-5.08,0-2.09,0-2.88-.06-4.38,0a16.89,16.89,0,0,0-4.46.56,10,10,0,0,0-2.89,1.28c-1.49,1-1.67,1.93-2.11,1.85C63.66,79.51,63.33,77.55,64.29,75.93Z" transform="translate(-16.5 -2)"/></g><g id="Letras_baner"><path class="cls-4" d="M146.66,76.42c-.33,1.7-2,7.42-2.53,9.12H118.55V84c5-.49,5.45-.76,5.45-5.44V56.73c0-4.68-.55-4.95-5-5.39V49.8h14.74v1.54c-4.4.44-5,.66-5,5.39V79.11c0,3.35.44,4.13,3.58,4.18l4.34.06c2.81,0,3.63-.33,4.9-1.71A18.64,18.64,0,0,0,145,76Z" transform="translate(-16.5 -2)"/><path class="cls-4" d="M172.23,85.54V84c3.58-.43,4-1,3.25-3.07s-1.82-4.9-3-8.36H160.63c-.88,2.47-1.71,4.62-2.48,6.87-1.21,3.58-.44,4,4.07,4.56v1.54h-12.7V84c3.46-.43,4.34-.82,6.27-5.77l11.38-28.87,1.76-.33c3.47,9.4,7.26,19.8,10.73,29.31,1.76,4.78,2.25,5.23,6.15,5.66v1.54Zm-5.5-29.31C165,61,163.1,66,161.45,70.31h10.29Z" transform="translate(-16.5 -2)"/><path class="cls-4" d="M202.21,49.8c3.9,0,7,.71,9.29,2.36A9.29,9.29,0,0,1,215.13,60c0,8-6.87,11.28-12.1,11.28a10.33,10.33,0,0,1-1.48-.11l-3.8-1v8.58c0,4.62.39,4.73,5.45,5.27v1.54H188V84c4.73-.49,4.95-.82,4.95-5.38V56.78c0-4.89-.61-5-4.95-5.44V49.8Zm-4.46,18.42a10,10,0,0,0,4,.72c3.68,0,8.25-1.87,8.25-8.8,0-6-4-8.47-8.58-8.47-1.6,0-2.75.27-3.08.66s-.61,1-.61,2.53Z" transform="translate(-16.5 -2)"/><path class="cls-4" d="M235.81,85.54V84c3.58-.43,4-1,3.25-3.07s-1.82-4.9-3-8.36H224.21c-.88,2.47-1.71,4.62-2.48,6.87-1.21,3.58-.44,4,4.07,4.56v1.54H213.1V84c3.46-.43,4.34-.82,6.27-5.77l11.38-28.87,1.76-.33c3.47,9.4,7.26,19.8,10.73,29.31,1.76,4.78,2.25,5.23,6.15,5.66v1.54Zm-5.5-29.31C228.55,61,226.68,66,225,70.31h10.29Z" transform="translate(-16.5 -2)"/><path class="cls-4" d="M271.56,58.16c-.94-3.63-2.48-7.21-7.64-7.21-4.29,0-5.78,3.14-5.78,6,0,3.79,2.42,5.72,7,8.08,6.59,3.41,9.45,5.94,9.45,11.17,0,5.77-5,10.17-12.09,10.17a23,23,0,0,1-8.42-1.82,73.37,73.37,0,0,1-1.48-8.24l1.7-.44c1.1,3.68,3.52,8.46,9.24,8.46A6,6,0,0,0,269.91,78c0-4.23-2.25-5.94-7.09-8.58-5.78-3.13-9-5.77-9-10.89,0-4.89,4.07-9.51,11.33-9.51a35.11,35.11,0,0,1,7.25,1c.22,2,.45,4.18.88,7.76Z" transform="translate(-16.5 -2)"/></g></g></svg>